<?xml version="1.0" encoding="UTF-8"?>
<svg id="Layer_1" data-name="Layer 1" xmlns="http://www.w3.org/2000/svg" viewBox="0 0 926.81 97.4">
  <path d="M146.49,25.15h27.6v61.8c0,2.27-.72,4.13-2.15,5.6-1.43,1.47-3.28,2.2-5.55,2.2h-22.3v-7.2h19.5c1.8,0,2.7-1,2.7-3v-52.2h-19.8v-7.2ZM163.09,10.35c0-1.93.68-3.58,2.05-4.95,1.37-1.37,3.02-2.05,4.95-2.05s3.58.68,4.95,2.05c1.37,1.37,2.05,3.02,2.05,4.95s-.68,3.58-2.05,4.95-3.02,2.05-4.95,2.05-3.58-.68-4.95-2.05c-1.37-1.37-2.05-3.02-2.05-4.95Z" style="fill: #fff; stroke-width: 0px;"/>
  <path d="M229.69,25.15h7.8v49.6h-7.8v-9h-1.2c-1.6,3.2-3.7,5.73-6.3,7.6-2.6,1.87-5.9,2.8-9.9,2.8-2.73,0-5.25-.45-7.55-1.35-2.3-.9-4.27-2.25-5.9-4.05-1.63-1.8-2.9-4.03-3.8-6.7-.9-2.67-1.35-5.77-1.35-9.3v-29.6h7.8v28.6c0,5.2,1.07,9,3.2,11.4,2.13,2.4,5.4,3.6,9.8,3.6,4.73,0,8.45-1.62,11.15-4.85,2.7-3.23,4.05-7.55,4.05-12.95v-25.8Z" style="fill: #fff; stroke-width: 0px;"/>
  <path d="M264.79,37.95c0,2.4,1.02,4.23,3.05,5.5,2.03,1.27,5.75,2.1,11.15,2.5,5.8.47,10.22,1.85,13.25,4.15,3.03,2.3,4.55,5.65,4.55,10.05v.6c0,2.4-.48,4.55-1.45,6.45-.97,1.9-2.3,3.52-4,4.85-1.7,1.33-3.77,2.35-6.2,3.05-2.43.7-5.08,1.05-7.95,1.05-3.87,0-7.18-.52-9.95-1.55-2.77-1.03-5.07-2.4-6.9-4.1-1.83-1.7-3.22-3.63-4.15-5.8-.93-2.17-1.47-4.35-1.6-6.55l7.4-1.8c.33,3.8,1.8,6.85,4.4,9.15,2.6,2.3,6.07,3.45,10.4,3.45,3.67,0,6.62-.72,8.85-2.15,2.23-1.43,3.35-3.45,3.35-6.05,0-2.8-1.1-4.8-3.3-6-2.2-1.2-5.77-1.97-10.7-2.3-5.73-.4-10.13-1.73-13.2-4-3.07-2.27-4.6-5.57-4.6-9.9v-.6c0-2.33.5-4.38,1.5-6.15,1-1.77,2.35-3.25,4.05-4.45,1.7-1.2,3.62-2.1,5.75-2.7,2.13-.6,4.37-.9,6.7-.9,3.27,0,6.13.45,8.6,1.35,2.47.9,4.53,2.07,6.2,3.5,1.67,1.43,2.95,3.08,3.85,4.95.9,1.87,1.48,3.73,1.75,5.6l-7.4,1.8c-.33-3.2-1.62-5.7-3.85-7.5-2.23-1.8-5.15-2.7-8.75-2.7-1.4,0-2.75.15-4.05.45-1.3.3-2.45.75-3.45,1.35-1,.6-1.8,1.35-2.4,2.25-.6.9-.9,1.95-.9,3.15Z" style="fill: #fff; stroke-width: 0px;"/>
  <path d="M307.99,25.15h15.6V4.75h7.8v20.4h19.2v7.2h-19.2v32.2c0,2,.9,3,2.7,3h14.1v7.2h-16.9c-2.27,0-4.12-.73-5.55-2.2-1.43-1.47-2.15-3.33-2.15-5.6v-34.6h-15.6v-7.2Z" style="fill: #fff; stroke-width: 0px;"/>
  <path d="M412.59,25.15h15.3v-12.6c0-2.27.72-4.13,2.15-5.6,1.43-1.47,3.28-2.2,5.55-2.2h19.6v7.2h-16.8c-1.8,0-2.7,1-2.7,3v10.2h20.7v7.2h-20.7v42.4h-7.8v-42.4h-15.3v-7.2Z" style="fill: #fff; stroke-width: 0px;"/>
  <path d="M515.09,50.55c0,4.13-.68,7.78-2.05,10.95-1.37,3.17-3.18,5.83-5.45,8-2.27,2.17-4.92,3.82-7.95,4.95-3.03,1.13-6.18,1.7-9.45,1.7s-6.5-.57-9.5-1.7-5.63-2.78-7.9-4.95c-2.27-2.17-4.08-4.83-5.45-8-1.37-3.17-2.05-6.82-2.05-10.95v-1.2c0-4.07.68-7.68,2.05-10.85,1.37-3.17,3.2-5.85,5.5-8.05,2.3-2.2,4.95-3.87,7.95-5,3-1.13,6.13-1.7,9.4-1.7s6.4.57,9.4,1.7c3,1.13,5.65,2.8,7.95,5,2.3,2.2,4.13,4.88,5.5,8.05,1.37,3.17,2.05,6.78,2.05,10.85v1.2ZM490.19,68.75c2.4,0,4.62-.42,6.65-1.25,2.03-.83,3.82-2.05,5.35-3.65,1.53-1.6,2.73-3.52,3.6-5.75.87-2.23,1.3-4.75,1.3-7.55v-1.2c0-2.67-.43-5.12-1.3-7.35-.87-2.23-2.07-4.15-3.6-5.75-1.53-1.6-3.33-2.85-5.4-3.75-2.07-.9-4.27-1.35-6.6-1.35s-4.53.45-6.6,1.35c-2.07.9-3.87,2.15-5.4,3.75-1.53,1.6-2.73,3.52-3.6,5.75-.87,2.23-1.3,4.68-1.3,7.35v1.2c0,2.8.43,5.32,1.3,7.55.87,2.23,2.07,4.15,3.6,5.75,1.53,1.6,3.32,2.82,5.35,3.65,2.03.83,4.25,1.25,6.65,1.25Z" style="fill: #fff; stroke-width: 0px;"/>
  <path d="M526.69,25.15h18v6.6h1.2c1.27-2.73,3.07-4.75,5.4-6.05,2.33-1.3,5-1.95,8-1.95,5,0,9.03,1.63,12.1,4.9,3.07,3.27,4.7,8.03,4.9,14.3l-8.2,1.2c0-4.6-1.1-7.92-3.3-9.95-2.2-2.03-4.9-3.05-8.1-3.05-2.07,0-3.85.4-5.35,1.2-1.5.8-2.75,1.9-3.75,3.3s-1.73,3.03-2.2,4.9c-.47,1.87-.7,3.87-.7,6v21h12.6v7.2h-31.8v-7.2h11.4v-35.2h-10.2v-7.2Z" style="fill: #fff; stroke-width: 0px;"/>
  <path d="M637.59,25.15h14.7V4.75h12.6v20.4h17.9v12h-17.9v22.6c0,2,.9,3,2.7,3h13.4v12h-21c-2.27,0-4.12-.73-5.55-2.2-1.43-1.47-2.15-3.33-2.15-5.6v-29.8h-14.7v-12Z" style="fill: #47a0d9; stroke-width: 0px;"/>
  <path d="M743.79,50.55c0,4.13-.7,7.78-2.1,10.95-1.4,3.17-3.3,5.83-5.7,8-2.4,2.17-5.15,3.82-8.25,4.95-3.1,1.13-6.35,1.7-9.75,1.7s-6.65-.57-9.75-1.7c-3.1-1.13-5.85-2.78-8.25-4.95-2.4-2.17-4.3-4.83-5.7-8-1.4-3.17-2.1-6.82-2.1-10.95v-1.2c0-4.07.7-7.68,2.1-10.85,1.4-3.17,3.3-5.85,5.7-8.05,2.4-2.2,5.15-3.87,8.25-5,3.1-1.13,6.35-1.7,9.75-1.7s6.65.57,9.75,1.7c3.1,1.13,5.85,2.8,8.25,5,2.4,2.2,4.3,4.88,5.7,8.05,1.4,3.17,2.1,6.78,2.1,10.85v1.2ZM717.99,64.15c1.8,0,3.5-.3,5.1-.9,1.6-.6,3-1.47,4.2-2.6,1.2-1.13,2.15-2.52,2.85-4.15.7-1.63,1.05-3.48,1.05-5.55v-2c0-2.07-.35-3.92-1.05-5.55-.7-1.63-1.65-3.02-2.85-4.15-1.2-1.13-2.6-2-4.2-2.6-1.6-.6-3.3-.9-5.1-.9s-3.5.3-5.1.9-3,1.47-4.2,2.6c-1.2,1.13-2.15,2.52-2.85,4.15-.7,1.63-1.05,3.48-1.05,5.55v2c0,2.07.35,3.92,1.05,5.55.7,1.63,1.65,3.02,2.85,4.15,1.2,1.13,2.6,2,4.2,2.6s3.3.9,5.1.9Z" style="fill: #47a0d9; stroke-width: 0px;"/>
  <path d="M791.99,67.55h-1.8c-.53,1.13-1.18,2.22-1.95,3.25-.77,1.03-1.77,1.95-3,2.75-1.23.8-2.7,1.43-4.4,1.9-1.7.47-3.75.7-6.15.7-3.07,0-5.92-.55-8.55-1.65-2.63-1.1-4.93-2.73-6.9-4.9-1.97-2.17-3.5-4.82-4.6-7.95-1.1-3.13-1.65-6.73-1.65-10.8v-1.8c0-4,.58-7.57,1.75-10.7,1.17-3.13,2.77-5.78,4.8-7.95,2.03-2.17,4.4-3.82,7.1-4.95,2.7-1.13,5.55-1.7,8.55-1.7,4,0,7.17.75,9.5,2.25,2.33,1.5,4.17,3.62,5.5,6.35h1.8V4.75h12.6v70h-12.6v-7.2ZM778.79,64.15c3.93,0,7.12-1.25,9.55-3.75,2.43-2.5,3.65-5.78,3.65-9.85v-1.2c0-4.07-1.22-7.35-3.65-9.85-2.43-2.5-5.62-3.75-9.55-3.75s-7.12,1.22-9.55,3.65-3.65,5.75-3.65,9.95v1.2c0,4.2,1.22,7.52,3.65,9.95,2.43,2.43,5.62,3.65,9.55,3.65Z" style="fill: #47a0d9; stroke-width: 0px;"/>
  <path d="M849.69,67.55c-1.33,3.13-3.2,5.35-5.6,6.65-2.4,1.3-5.2,1.95-8.4,1.95-3,0-5.82-.57-8.45-1.7-2.63-1.13-4.95-2.8-6.95-5-2-2.2-3.58-4.87-4.75-8-1.17-3.13-1.75-6.7-1.75-10.7v-1.6c0-3.93.57-7.47,1.7-10.6,1.13-3.13,2.67-5.8,4.6-8,1.93-2.2,4.18-3.88,6.75-5.05,2.57-1.17,5.32-1.75,8.25-1.75,3.53,0,6.38.6,8.55,1.8,2.17,1.2,3.88,3.07,5.15,5.6h1.8v-6h12.6v34.6c0,2,.9,3,2.7,3h1.9v12h-8.6c-2.27,0-4.12-.67-5.55-2-1.43-1.33-2.15-3.07-2.15-5.2h-1.8ZM838.49,64.15c3.67,0,6.6-1.22,8.8-3.65,2.2-2.43,3.3-5.75,3.3-9.95v-1.2c0-4.2-1.1-7.52-3.3-9.95-2.2-2.43-5.13-3.65-8.8-3.65s-6.6,1.22-8.8,3.65c-2.2,2.43-3.3,5.75-3.3,9.95v1.2c0,4.2,1.1,7.52,3.3,9.95,2.2,2.43,5.13,3.65,8.8,3.65Z" style="fill: #47a0d9; stroke-width: 0px;"/>
  <path d="M912.39,25.15h12.6v61.8c0,2.27-.72,4.13-2.15,5.6-1.43,1.47-3.28,2.2-5.55,2.2h-29.5v-12h21.9c1.8,0,2.7-1,2.7-3v-12.2h-1.8c-2.2,5.73-6.93,8.6-14.2,8.6-2.47,0-4.77-.4-6.9-1.2-2.13-.8-4-2.03-5.6-3.7-1.6-1.67-2.85-3.75-3.75-6.25-.9-2.5-1.35-5.45-1.35-8.85v-31h12.6v28.4c0,3.53.83,6.28,2.5,8.25,1.67,1.97,4.17,2.95,7.5,2.95,3.8,0,6.58-1.22,8.35-3.65,1.77-2.43,2.65-5.75,2.65-9.95v-26Z" style="fill: #47a0d9; stroke-width: 0px;"/>
  <path d="M20.91,26.16c0-5.33,2.92-9.93,7.22-12.44v35.55h8.67V11.72h8.67v37.56h8.67V13.72c4.3,2.51,7.22,7.11,7.22,12.44v23.11h8.67v-23.11c0-12.76-10.35-23.11-23.11-23.11h-11.55c-12.77,0-23.11,10.35-23.11,23.11v23.11h8.67v-23.11ZM81.27,64.78l-1.93-5.78c-.79-2.37-3-3.95-5.49-3.95H8.4c-2.49,0-4.69,1.59-5.49,3.95l-1.93,5.78c-1.23,3.74,1.55,7.6,5.49,7.6v20.22c0,1.59,1.3,2.89,2.89,2.89h5.78c1.59,0,2.89-1.3,2.89-2.89v-20.22h46.22v20.22c0,1.59,1.3,2.89,2.89,2.89h5.78c1.59,0,2.89-1.3,2.89-2.89v-20.22c3.94,0,6.72-3.86,5.47-7.6Z" style="fill: #fff; stroke-width: 0px;"/>
</svg>