<?xml version="1.0" encoding="utf-8"?>
<!-- Generator: Adobe Illustrator 16.0.0, SVG Export Plug-In . SVG Version: 6.00 Build 0)  -->
<!DOCTYPE svg PUBLIC "-//W3C//DTD SVG 1.1//EN" "http://www.w3.org/Graphics/SVG/1.1/DTD/svg11.dtd">
<svg version="1.1" id="Layer_1" xmlns="http://www.w3.org/2000/svg" xmlns:xlink="http://www.w3.org/1999/xlink" x="0px" y="0px"
	 width="1024px" height="1024px" viewBox="0 0 1024 1024" enable-background="new 0 0 1024 1024" xml:space="preserve">
<path fill="#3BA1E5" d="M323.326,296.317c0-49.708,27.297-92.674,67.405-116.095V512h80.88V161.515h80.88V512h80.881V180.222
	c40.106,23.421,67.404,66.388,67.404,116.095V512h80.88V296.317c0-119.133-96.55-215.683-215.688-215.683H458.134
	c-119.139,0-215.688,96.55-215.688,215.683V512h80.88V296.317z M886.628,656.741L868.6,602.819
	c-7.413-22.071-27.976-36.897-51.224-36.897H206.553c-23.249,0-43.805,14.826-51.217,36.897l-18.035,53.922
	c-11.456,34.883,14.492,70.941,51.229,70.941v188.719c0,14.831,12.126,26.964,26.958,26.964h53.922
	c14.825,0,26.958-12.133,26.958-26.964V727.683h431.365v188.719c0,14.831,12.133,26.964,26.958,26.964h53.922
	c14.831,0,26.958-12.133,26.958-26.964V727.683C872.309,727.683,898.256,691.624,886.628,656.741z"/>
</svg>
